<?xml version="1.0" encoding="utf-8"?>
<!-- Generator: Adobe Illustrator 23.0.1, SVG Export Plug-In . SVG Version: 6.00 Build 0)  -->
<svg version="1.1" id="Layer_1" xmlns="http://www.w3.org/2000/svg" xmlns:xlink="http://www.w3.org/1999/xlink" x="0px" y="0px"
	 viewBox="0 0 1024 1024" style="enable-background:new 0 0 1024 1024;" xml:space="preserve">
<style type="text/css">
	.st0{clip-path:url(#SVGID_2_);fill:url(#SVGID_3_);}
	.st1{filter:url(#Adobe_OpacityMaskFilter);}
	.st2{clip-path:url(#SVGID_5_);fill:url(#SVGID_7_);}
	.st3{clip-path:url(#SVGID_5_);mask:url(#SVGID_6_);fill:url(#SVGID_8_);}
	.st4{fill:#FFFFFF;}
	.st5{clip-path:url(#SVGID_10_);fill:url(#SVGID_11_);}
	.st6{filter:url(#Adobe_OpacityMaskFilter_1_);}
	.st7{clip-path:url(#SVGID_13_);fill:url(#SVGID_15_);}
	.st8{clip-path:url(#SVGID_13_);mask:url(#SVGID_14_);fill:url(#SVGID_16_);}
	.st9{clip-path:url(#SVGID_18_);fill:url(#SVGID_19_);}
	.st10{filter:url(#Adobe_OpacityMaskFilter_2_);}
	.st11{clip-path:url(#SVGID_21_);fill:url(#SVGID_23_);}
	.st12{clip-path:url(#SVGID_21_);mask:url(#SVGID_22_);fill:url(#SVGID_24_);}
	.st13{clip-path:url(#SVGID_26_);fill:url(#SVGID_27_);}
	.st14{clip-path:url(#SVGID_30_);fill:url(#SVGID_31_);}
	.st15{clip-path:url(#SVGID_34_);fill:url(#SVGID_35_);}
	.st16{clip-path:url(#SVGID_38_);fill:url(#SVGID_39_);}
	.st17{clip-path:url(#SVGID_42_);fill:url(#SVGID_43_);}
	.st18{clip-path:url(#SVGID_46_);fill:url(#SVGID_47_);}
	.st19{clip-path:url(#SVGID_50_);fill:url(#SVGID_51_);}
	.st20{clip-path:url(#SVGID_54_);fill:url(#SVGID_55_);}
	.st21{clip-path:url(#SVGID_58_);fill:url(#SVGID_59_);}
	.st22{clip-path:url(#SVGID_62_);fill:url(#SVGID_63_);}
	.st23{clip-path:url(#SVGID_65_);fill:url(#SVGID_66_);}
	.st24{clip-path:url(#SVGID_69_);fill:url(#SVGID_70_);}
	.st25{clip-path:url(#SVGID_73_);fill:url(#SVGID_74_);}
	.st26{clip-path:url(#SVGID_77_);fill:url(#SVGID_78_);}
	.st27{clip-path:url(#SVGID_81_);fill:url(#SVGID_82_);}
	.st28{clip-path:url(#SVGID_85_);fill:url(#SVGID_86_);}
	.st29{clip-path:url(#SVGID_88_);fill:url(#SVGID_89_);}
	.st30{clip-path:url(#SVGID_92_);fill:url(#SVGID_93_);}
	.st31{clip-path:url(#SVGID_96_);fill:url(#SVGID_97_);}
	.st32{clip-path:url(#SVGID_100_);fill:url(#SVGID_101_);}
	.st33{clip-path:url(#SVGID_104_);fill:url(#SVGID_105_);}
	.st34{clip-path:url(#SVGID_108_);fill:url(#SVGID_109_);}
	.st35{clip-path:url(#SVGID_111_);fill:url(#SVGID_112_);}
	.st36{clip-path:url(#SVGID_115_);fill:url(#SVGID_116_);}
	.st37{clip-path:url(#SVGID_119_);fill:url(#SVGID_120_);}
	.st38{clip-path:url(#SVGID_123_);fill:url(#SVGID_124_);}
	.st39{clip-path:url(#SVGID_127_);fill:url(#SVGID_128_);}
	.st40{clip-path:url(#SVGID_131_);fill:url(#SVGID_132_);}
	.st41{clip-path:url(#SVGID_134_);fill:url(#SVGID_135_);}
	.st42{clip-path:url(#SVGID_138_);fill:url(#SVGID_139_);}
	.st43{clip-path:url(#SVGID_142_);fill:url(#SVGID_143_);}
	.st44{clip-path:url(#SVGID_146_);fill:url(#SVGID_147_);}
</style>
<g>
	<g>
		<defs>
			<path id="SVGID_1_" d="M432,22.9L128.4,198.2c-49.5,28.6-80,81.4-80,138.6v350.5c0,57.2,30.5,110,80,138.6L432,1001.1
				c49.5,28.6,110.5,28.6,160,0l303.6-175.3c49.5-28.6,80-81.4,80-138.6V336.7c0-57.2-30.5-110-80-138.6L592,22.9
				C567.2,8.6,539.6,1.5,512,1.5C484.4,1.5,456.8,8.6,432,22.9"/>
		</defs>
		<clipPath id="SVGID_2_">
			<use xlink:href="#SVGID_1_"  style="overflow:visible;"/>
		</clipPath>
		
			<linearGradient id="SVGID_3_" gradientUnits="userSpaceOnUse" x1="172.3562" y1="851.9937" x2="174.4286" y2="851.9937" gradientTransform="matrix(193.2358 361.1669 361.1669 -193.2358 -340746.8125 102450.6172)">
			<stop  offset="0" style="stop-color:#1B53A3"/>
			<stop  offset="0.5553" style="stop-color:#14A3C8"/>
			<stop  offset="1" style="stop-color:#27ADC5"/>
		</linearGradient>
		<polygon class="st0" points="769.2,-384.2 1403.2,800.8 254.8,1415.3 -379.2,230.3 		"/>
	</g>
	<g>
		<defs>
			<path id="SVGID_4_" d="M142.7,834.1l289.3,167c49.5,28.6,110.5,28.6,160,0l303.6-175.3c8.6-5,16.5-10.7,23.9-17
				c-58.7-54.7-158-130.5-336.3-166.3C403.8,708.3,316,746.3,142.7,834.1"/>
		</defs>
		<clipPath id="SVGID_5_">
			<use xlink:href="#SVGID_4_"  style="overflow:visible;"/>
		</clipPath>
		<defs>
			<filter id="Adobe_OpacityMaskFilter" filterUnits="userSpaceOnUse" x="-36" y="284.1" width="1134.1" height="1104.1">
				<feColorMatrix  type="matrix" values="1 0 0 0 0  0 1 0 0 0  0 0 1 0 0  0 0 0 1 0"/>
			</filter>
		</defs>
		<mask maskUnits="userSpaceOnUse" x="-36" y="284.1" width="1134.1" height="1104.1" id="SVGID_6_">
			<g class="st1">
				
					<linearGradient id="SVGID_7_" gradientUnits="userSpaceOnUse" x1="172.8696" y1="852.5032" x2="174.942" y2="852.5032" gradientTransform="matrix(-115.0213 172.5319 172.5319 115.0213 -126495.9531 -127305.3906)">
					<stop  offset="0" style="stop-color:#CECECE"/>
					<stop  offset="0.5553" style="stop-color:#000000"/>
					<stop  offset="1" style="stop-color:#000000"/>
				</linearGradient>
				<polygon class="st2" points="1098.1,761.7 680.5,1388.2 -36,910.6 381.7,284.1 				"/>
			</g>
		</mask>
		
			<linearGradient id="SVGID_8_" gradientUnits="userSpaceOnUse" x1="172.8696" y1="852.5032" x2="174.942" y2="852.5032" gradientTransform="matrix(-115.0213 172.5319 172.5319 115.0213 -126495.9453 -127305.3672)">
			<stop  offset="0" style="stop-color:#1D8CBC"/>
			<stop  offset="0.5553" style="stop-color:#14A3C8"/>
			<stop  offset="1" style="stop-color:#27ADC5"/>
		</linearGradient>
		<polygon class="st3" points="1098.1,761.7 680.5,1388.2 -36,910.6 381.7,284.1 		"/>
	</g>
	<g>
		<path class="st4" d="M678.4,322.7c0,0-0.1,0-0.1,0c0,0,0,0-0.1,0c0,0,0,0,0,0c-68.8,0-129.1,36.9-162.3,91.9l-0.7,1.3
			c-1.1,1.9-2.2,3.8-3.3,5.7c0,0,0,0,0,0v0v0l0,0.1l-4.8,9.5l-61.7,121.7c-16.1,39.3-54.8,67-99.8,67c-45,0-83.7-27.7-99.8-67H410
			l24.5-48.2l12.8-25.3l15.3-30.2l29.2-57.5c-34.8-42.2-87.4-69.1-146.1-69.1h0H160.5h-4.2c0,45,36.5,81.6,81.6,81.6h107.8
			c43.3,0,82.6,30.1,99.8,67H156.3v7.5v30.7c0,104.7,85.7,192.5,190.4,191.9c68.3-0.4,128.2-37.1,161.2-91.9l3.8-7.5l8.4-16.5
			c0,0,4.7-9.3,11.5-22.5l2.5-4.9c2.8-5.5,5.9-11.5,9-17.7l1.6-3.1c3.6-7,7.2-14.1,10.7-21l3.7-7.2c2.8-5.5,5.5-10.7,7.9-15.4
			l5.1-10c1.2-2.3,2.2-4.3,3-6l2.6-5.1c0-0.1,0.1-0.2,0.1-0.3l0.6-1.2c16.1-39.3,54.7-67,99.7-67c45,0,83.6,27.7,99.7,67H613.9h-1.5
			L531,630.7c0.4,0.5,0.8,0.9,1.2,1.4l-0.1,0.1c26.1,31.6,62.2,54.7,103.4,64.2c3.4,0.8,6.9,1.5,10.4,2.1
			c10.5,1.8,21.3,2.8,32.3,2.8h185.3h4.1h0.1c0-45-36.5-81.6-81.6-81.6H786H678.3c-43.3,0-82.6-30.1-99.8-67h289h0.1v-44.1
			C867.7,404.5,782.5,320.9,678.4,322.7"/>
	</g>
</g>
</svg>
